<svg width="69" height="80" viewBox="0 0 69 80" fill="none" xmlns="http://www.w3.org/2000/svg"><g clip-path="url(#clip0_36:438)"><path d="M21.9 17.975c0 .794-.066 2.123-.866 2.982-.86.794-2.188.86-2.982.86h-8.49c-2.454 0-3.913 0-4.909.13-.527.065-1.191.332-1.523.462-.13.065-.13 0-.065-.065L22.427 2.656c.065-.065.13-.065.065.065-.13.332-.397.996-.462 1.524-.13.996-.13 2.454-.13 4.909v8.821zM39.94 77.54c-2.253-1.458-3.45-3.385-3.913-4.577a9.714 9.714 0 0 1-.73-3.646c0-5.507 4.513-10.013 10.086-10.013a2.969 2.969 0 0 1 2.981 2.982c0 1.127-.599 2.057-1.523 2.585-.332.202-.794.332-1.127.397-.331.065-1.588.202-2.187.73-.664.533-1.191 1.392-1.191 2.323a3.64 3.64 0 0 0 1.06 2.585 6.323 6.323 0 0 0 4.512 1.855 8.15 8.15 0 0 0 8.158-8.157c0-4.043-2.721-7.63-6.302-9.219-.527-.267-1.393-.462-2.188-.664-.996-.202-1.92-.332-1.992-.332-2.793-.332-9.759-2.52-10.221-8.685 0 0-2.057 9.284-6.172 11.803a6.883 6.883 0 0 1-1.523.534 8.35 8.35 0 0 1-1.459.196c-6.699.397-13.795-1.726-18.704-6.765 0 0-3.314-2.721-5.04-10.345-.396-1.855-1.19-5.175-1.66-8.294-.201-1.126-.266-1.986-.331-2.786 0-3.25 1.992-5.437 4.511-5.769h13.529c2.324 0 3.646-.599 4.512-1.393 1.126-1.061 1.393-2.585 1.393-4.375V4.513C24.75 2.057 26.939 0 30.187 0h1.595c.664 0 1.459.065 2.188.13.534.065.996.202 1.79.397 4.043.996 4.909 5.105 4.909 5.105s7.63 1.328 11.478 1.992c3.646.664 12.67 1.263 14.394 10.345 4.043 21.62 1.595 42.584 1.394 42.584-2.852 20.43-19.831 19.434-19.831 19.434-3.659.007-6.374-1.191-8.164-2.448zm15.254-43.444c-2.188-.202-4.043.664-4.707 2.324-.13.332-.267.73-.202.931.065.202.202.267.332.332.794.397 2.122.6 4.043.795 1.92.201 3.248.332 4.114.201.13 0 .267-.065.398-.267.13-.201.065-.599.065-.93-.26-1.863-1.856-3.126-4.043-3.386z" fill="#00A82D"/></g><defs><clipPath id="clip0_36:438"><path fill="#fff" transform="translate(.474)" d="M0 0h68.372v80H0z"/></clipPath></defs></svg>