<svg width="81" height="80" viewBox="0 0 81 80" fill="none" xmlns="http://www.w3.org/2000/svg"><path d="M17.282 50.554c0 4.625-3.78 8.404-8.404 8.404-4.626 0-8.404-3.779-8.404-8.404 0-4.626 3.778-8.404 8.404-8.404h8.404v8.404zm4.234 0c0-4.626 3.778-8.404 8.404-8.404 4.625 0 8.404 3.778 8.404 8.404v21.042c0 4.626-3.779 8.404-8.404 8.404-4.626 0-8.404-3.778-8.404-8.404V50.554z" fill="#E01E5A"/><path d="M29.92 16.808c-4.626 0-8.404-3.779-8.404-8.404S25.294 0 29.92 0c4.625 0 8.404 3.779 8.404 8.404v8.404H29.92zm0 4.234c4.625 0 8.404 3.779 8.404 8.404 0 4.626-3.779 8.404-8.404 8.404H8.878c-4.626 0-8.404-3.778-8.404-8.404 0-4.625 3.778-8.404 8.404-8.404H29.92z" fill="#36C5F0"/><path d="M63.666 29.446c0-4.625 3.778-8.404 8.404-8.404 4.625 0 8.404 3.779 8.404 8.404 0 4.626-3.779 8.404-8.404 8.404h-8.404v-8.404zm-4.235 0c0 4.626-3.778 8.404-8.404 8.404-4.625 0-8.404-3.778-8.404-8.404V8.404c0-4.625 3.78-8.404 8.405-8.404 4.626 0 8.404 3.779 8.404 8.404v21.042z" fill="#2EB67D"/><path d="M51.027 63.192c4.626 0 8.404 3.779 8.404 8.404 0 4.626-3.778 8.404-8.404 8.404-4.625 0-8.404-3.778-8.404-8.404v-8.404h8.404zm0-4.234c-4.625 0-8.404-3.779-8.404-8.404 0-4.626 3.779-8.404 8.404-8.404H72.07c4.625 0 8.404 3.778 8.404 8.404 0 4.625-3.779 8.404-8.404 8.404H51.027z" fill="#ECB22E"/></svg>