<svg width="1600" height="530" viewBox="0 0 1600 530" fill="none" xmlns="http://www.w3.org/2000/svg">
<g clip-path="url(#clip0)">
<path opacity="0.5" d="M90 265C90 281.207 85.6657 296.408 78.0829 309.5C70.2776 323.019 59.0102 334.278 45.5 342.092C32.4081 349.666 17.2158 354 1 354V176C17.2158 176 32.4081 180.334 45.5 187.908C59.0102 195.722 70.2776 206.981 78.0829 220.5C85.6657 233.592 90 248.793 90 265Z" fill="#E8E9EB"/>
<path opacity="0.5" d="M356 176V354H178C194.216 354 209.408 349.666 222.5 342.092C236.01 334.278 247.278 323.019 255.083 309.5C262.666 296.408 267 281.207 267 265C267 248.793 262.666 233.592 255.083 220.5C247.278 206.981 236.01 195.722 222.5 187.908C209.408 180.334 194.216 176 178 176H356Z" fill="#D2D5D9"/>
<path opacity="0.5" d="M533 354H356C356 337.611 360.31 322.239 367.85 309C375.612 295.329 386.816 283.944 400.25 276.042C413.268 268.383 428.375 264 444.5 264C460.625 264 475.732 268.383 488.75 276.042C502.184 283.944 513.388 295.329 521.15 309C528.69 322.239 533 337.611 533 354Z" fill="#B6BABF"/>
<path opacity="0.5" d="M843.75 342.092C856.768 349.666 871.875 354 888 354H711V176H888C871.875 176 856.768 180.334 843.75 187.908C830.316 195.722 819.112 206.981 811.35 220.5C803.81 233.592 799.5 248.793 799.5 265C799.5 281.207 803.81 296.408 811.35 309.5C819.112 323.019 830.316 334.278 843.75 342.092Z" fill="#9FA5AB"/>
<path opacity="0.5" d="M1198.75 342.092C1211.77 349.666 1226.88 354 1243 354H1066V176H1243C1226.88 176 1211.77 180.334 1198.75 187.908C1185.32 195.722 1174.11 206.981 1166.35 220.5C1158.81 233.592 1154.5 248.793 1154.5 265C1154.5 281.207 1158.81 296.408 1166.35 309.5C1174.11 323.019 1185.32 334.278 1198.75 342.092Z" fill="#E8E9EB"/>
<path opacity="0.5" d="M178 0V176C178 159.975 173.69 144.945 166.15 132C158.388 118.633 147.184 107.501 133.75 99.7744C120.732 92.2856 105.625 88 89.5 88C73.3753 88 58.2683 92.2856 45.25 99.7744C31.8157 107.501 20.6116 118.633 12.8502 132C5.30995 144.945 1 159.975 1 176V0H178Z" fill="#D2D5D9"/>
<path opacity="0.5" d="M178 176H1C1 159.975 5.30995 144.945 12.8502 132C20.6116 118.633 31.8157 107.501 45.25 99.7744C58.2683 92.2856 73.3753 88 89.5 88C105.625 88 120.732 92.2856 133.75 99.7744C147.184 107.501 158.388 118.633 166.15 132C173.69 144.945 178 159.975 178 176Z" fill="#B6BABF"/>
<path opacity="0.5" d="M178 176V354H1C17.1247 354 32.2316 349.666 45.25 342.092C58.6843 334.278 69.8884 323.019 77.6498 309.5C85.19 296.408 89.5 281.207 89.5 265C89.5 248.793 85.19 233.592 77.6498 220.5C69.8884 206.981 58.6843 195.722 45.25 187.908C32.2316 180.334 17.1247 176 1 176H178Z" fill="#B6BABF"/>
<path opacity="0.5" d="M488.75 164.226C501.768 171.714 516.875 176 533 176H356V0H533C516.875 0 501.768 4.2856 488.75 11.7744C475.316 19.5008 464.112 30.6328 456.35 44C448.81 56.9448 444.5 71.9752 444.5 88C444.5 104.025 448.81 119.055 456.35 132C464.112 145.367 475.316 156.499 488.75 164.226Z" fill="#B6BABF"/>
<path opacity="0.5" d="M666.5 342.092C679.592 349.666 694.784 354 711 354H533V176H711C694.784 176 679.592 180.334 666.5 187.908C652.99 195.722 641.722 206.981 633.917 220.5C626.334 233.592 622 248.793 622 265C622 281.207 626.334 296.408 633.917 309.5C641.722 323.019 652.99 334.278 666.5 342.092Z" fill="#E8E9EB"/>
<path opacity="0.5" d="M1587.16 220.5C1594.69 207.408 1599 192.216 1599 176L1599 354L1422 354L1422 176C1422 192.216 1426.31 207.408 1433.84 220.5C1441.61 234.01 1452.81 245.278 1466.25 253.083C1479.27 260.666 1494.38 265 1510.5 265C1526.62 265 1541.73 260.666 1554.75 253.083C1568.19 245.278 1579.39 234.01 1587.16 220.5Z" fill="#D2D5D9"/>
<path opacity="0.5" d="M1066 0V176H888C904.216 176 919.408 171.714 932.5 164.226C946.01 156.499 957.278 145.367 965.083 132C972.666 119.055 977 104.025 977 88C977 71.9752 972.666 56.9448 965.083 44C957.278 30.6328 946.01 19.5008 932.5 11.7744C919.408 4.2856 904.216 0 888 0H1066Z" fill="#B6BABF"/>
<path opacity="0.5" d="M1243 0V176H1066C1082.12 176 1097.23 171.714 1110.25 164.226C1123.68 156.499 1134.89 145.367 1142.65 132C1150.19 119.055 1154.5 104.025 1154.5 88C1154.5 71.9752 1150.19 56.9448 1142.65 44C1134.89 30.6328 1123.68 19.5008 1110.25 11.7744C1097.23 4.2856 1082.12 0 1066 0H1243Z" fill="#9FA5AB"/>
<path opacity="0.5" d="M356 1C356 17.0248 351.666 32.0552 344.083 45C336.278 58.3672 325.01 69.4992 311.5 77.2256C298.408 84.7144 283.216 89 267 89C250.784 89 235.592 84.7144 222.5 77.2256C208.99 69.4992 197.722 58.3672 189.917 45C182.334 32.0552 178 17.0248 178 1H356Z" fill="#9FA5AB"/>
<path opacity="0.5" d="M267 265C267 281.207 262.666 296.408 255.083 309.5C247.278 323.019 236.01 334.278 222.5 342.092C209.408 349.666 194.216 354 178 354V176C194.216 176 209.408 180.334 222.5 187.908C236.01 195.722 247.278 206.981 255.083 220.5C262.666 233.592 267 248.793 267 265Z" fill="#9FA5AB"/>
<path opacity="0.5" d="M356 0V176H178V0C178 16.0248 182.334 31.0552 189.917 44C197.722 57.3672 208.99 68.4992 222.5 76.2256C235.592 83.7144 250.784 88 267 88C283.216 88 298.408 83.7144 311.5 76.2256C325.01 68.4992 336.278 57.3672 344.083 44C351.666 31.0552 356 16.0248 356 0Z" fill="#E8E9EB"/>
<path opacity="0.5" d="M533 0V176C516.784 176 501.592 171.714 488.5 164.226C474.99 156.499 463.722 145.367 455.917 132C448.334 119.055 444 104.025 444 88C444 71.9752 448.334 56.9448 455.917 44C463.722 30.6328 474.99 19.5008 488.5 11.7744C501.592 4.2856 516.784 0 533 0Z" fill="#D2D5D9"/>
<path opacity="0.5" d="M622 88C622 104.025 617.666 119.055 610.083 132C602.278 145.367 591.01 156.499 577.5 164.226C564.408 171.714 549.216 176 533 176V0C549.216 0 564.408 4.2856 577.5 11.7744C591.01 19.5008 602.278 30.6328 610.083 44C617.666 56.9448 622 71.9752 622 88Z" fill="#9FA5AB"/>
<path opacity="0.5" d="M533 176V354C533 337.793 528.69 322.592 521.15 309.5C513.388 295.981 502.184 284.722 488.75 276.908C475.732 269.334 460.625 265 444.5 265C428.375 265 413.268 269.334 400.25 276.908C386.816 284.722 375.612 295.981 367.85 309.5C360.31 322.592 356 337.793 356 354V176H533Z" fill="#B6BABF"/>
<path opacity="0.5" d="M888 176H711C711 159.975 715.31 144.945 722.85 132C730.612 118.633 741.816 107.501 755.25 99.7744C768.268 92.2856 783.375 88 799.5 88C815.625 88 830.732 92.2856 843.75 99.7744C857.184 107.501 868.388 118.633 876.15 132C883.69 144.945 888 159.975 888 176Z" fill="#D2D5D9"/>
<path opacity="0.5" d="M711 0V176H533C549.216 176 564.408 171.714 577.5 164.226C591.01 156.499 602.278 145.367 610.083 132C617.666 119.055 622 104.025 622 88C622 71.9752 617.666 56.9448 610.083 44C602.278 30.6328 591.01 19.5008 577.5 11.7744C564.408 4.2856 549.216 0 533 0H711Z" fill="#B6BABF"/>
<path opacity="0.5" d="M711 176V354C694.784 354 679.592 349.666 666.5 342.092C652.99 334.278 641.722 323.019 633.917 309.5C626.334 296.408 622 281.207 622 265C622 248.793 626.334 233.592 633.917 220.5C641.722 206.981 652.99 195.722 666.5 187.908C679.592 180.334 694.784 176 711 176Z" fill="#D2D5D9"/>
<path opacity="0.5" d="M1422 176L1599 176C1599 192.216 1594.69 207.408 1587.16 220.5C1579.39 234.01 1568.19 245.278 1554.75 253.083C1541.73 260.666 1526.62 265 1510.5 265C1494.38 265 1479.27 260.666 1466.25 253.083C1452.81 245.278 1441.61 234.01 1433.84 220.5C1426.31 207.408 1422 192.216 1422 176Z" fill="#9FA5AB"/>
<path opacity="0.5" d="M978 88C978 104.025 973.617 119.055 965.949 132C958.056 145.367 946.662 156.499 933 164.226C919.761 171.714 904.398 176 888 176V0C904.398 0 919.761 4.2856 933 11.7744C946.662 19.5008 958.056 30.6328 965.949 44C973.617 56.9448 978 71.9752 978 88Z" fill="#9FA5AB"/>
<path opacity="0.5" d="M888 0V176C888 159.975 883.69 144.945 876.15 132C868.388 118.633 857.184 107.501 843.75 99.7744C830.732 92.2856 815.625 88 799.5 88C783.375 88 768.268 92.2856 755.25 99.7744C741.816 107.501 730.612 118.633 722.85 132C715.31 144.945 711 159.975 711 176V0H888Z" fill="#E8E9EB"/>
<path opacity="0.5" d="M1066 176C1066 192.207 1061.67 207.408 1054.08 220.5C1046.28 234.019 1035.01 245.278 1021.5 253.092C1008.41 260.666 993.216 265 977 265C960.784 265 945.592 260.666 932.5 253.092C918.99 245.278 907.722 234.019 899.917 220.5C892.334 207.408 888 192.207 888 176H1066Z" fill="#B6BABF"/>
<path opacity="0.5" d="M888 176V354C871.966 354 856.945 349.666 844 342.092C830.642 334.278 819.501 323.019 811.783 309.5C804.286 296.408 800 281.207 800 265C800 248.793 804.286 233.592 811.783 220.5C819.501 206.981 830.642 195.722 844 187.908C856.945 180.334 871.966 176 888 176Z" fill="#E8E9EB"/>
<path opacity="0.5" d="M1066 176V354H888V176C888 192.207 892.334 207.408 899.917 220.5C907.722 234.019 918.99 245.278 932.5 253.092C945.592 260.666 960.784 265 977 265C993.216 265 1008.41 260.666 1021.5 253.092C1035.01 245.278 1046.28 234.019 1054.08 220.5C1061.67 207.408 1066 192.207 1066 176Z" fill="#D2D5D9"/>
<path opacity="0.5" d="M1155 88C1155 104.025 1150.67 119.055 1143.08 132C1135.28 145.367 1124.01 156.499 1110.5 164.226C1097.41 171.714 1082.22 176 1066 176V0C1082.22 0 1097.41 4.2856 1110.5 11.7744C1124.01 19.5008 1135.28 30.6328 1143.08 44C1150.67 56.9448 1155 71.9752 1155 88Z" fill="#D2D5D9"/>
<path opacity="0.5" d="M1421 1C1421 17.0248 1416.67 32.0552 1409.08 45C1401.28 58.3672 1390.01 69.4992 1376.5 77.2256C1363.41 84.7144 1348.22 89 1332 89C1315.78 89 1300.59 84.7144 1287.5 77.2256C1273.99 69.4992 1262.72 58.3672 1254.92 45C1247.33 32.0552 1243 17.0248 1243 1H1421Z" fill="#B6BABF"/>
<path opacity="0.5" d="M1243 176V354C1226.97 354 1211.94 349.666 1199 342.092C1185.64 334.278 1174.5 323.019 1166.78 309.5C1159.29 296.408 1155 281.207 1155 265C1155 248.793 1159.29 233.592 1166.78 220.5C1174.5 206.981 1185.64 195.722 1199 187.908C1211.94 180.334 1226.97 176 1243 176Z" fill="#B6BABF"/>
<path opacity="0.5" d="M1421 176V354C1421 337.793 1416.67 322.592 1409.08 309.5C1401.28 295.981 1390.01 284.722 1376.5 276.908C1363.41 269.334 1348.22 265 1332 265C1315.78 265 1300.59 269.334 1287.5 276.908C1273.99 284.722 1262.72 295.981 1254.92 309.5C1247.33 322.592 1243 337.793 1243 354V176H1421Z" fill="#E8E9EB"/>
<path opacity="0.5" d="M1421 354H1243C1243 337.611 1247.33 322.239 1254.92 309C1262.72 295.329 1273.99 283.944 1287.5 276.042C1300.59 268.383 1315.78 264 1332 264C1348.22 264 1363.41 268.383 1376.5 276.042C1390.01 283.944 1401.28 295.329 1409.08 309C1416.67 322.239 1421 337.611 1421 354Z" fill="#9FA5AB"/>
<path opacity="0.5" d="M1243 176L1243 2.39308e-07C1243 16.0248 1247.33 31.0552 1254.92 44C1262.72 57.3672 1273.99 68.4992 1287.5 76.2256C1300.59 83.7144 1315.78 88 1332 88C1348.22 88 1363.41 83.7144 1376.5 76.2256C1390.01 68.4992 1401.28 57.3672 1409.08 44C1416.67 31.0552 1421 16.0248 1421 -1.52588e-05L1421 176L1243 176Z" fill="#D2D5D9"/>
<path opacity="0.5" d="M1510 442C1510 425.975 1514.33 410.945 1521.92 398C1529.72 384.633 1540.99 373.501 1554.5 365.774C1567.59 358.286 1582.78 354 1599 354L1599 530C1582.78 530 1567.59 525.714 1554.5 518.226C1540.99 510.499 1529.72 499.367 1521.92 486C1514.33 473.055 1510 458.025 1510 442Z" fill="#9FA5AB"/>
<path opacity="0.5" d="M1421 530L1421 354L1599 354C1582.78 354 1567.59 358.286 1554.5 365.774C1540.99 373.501 1529.72 384.633 1521.92 398C1514.33 410.945 1510 425.975 1510 442C1510 458.025 1514.33 473.055 1521.92 486C1529.72 499.367 1540.99 510.499 1554.5 518.226C1567.59 525.714 1582.78 530 1599 530L1421 530Z" fill="#B6BABF"/>
<path opacity="0.5" d="M178 354V530C178 513.975 173.69 498.945 166.15 486C158.388 472.633 147.184 461.501 133.75 453.774C120.732 446.286 105.625 442 89.5 442C73.3753 442 58.2683 446.286 45.25 453.774C31.8157 461.501 20.6116 472.633 12.8502 486C5.30995 498.945 1 513.975 1 530V354H178Z" fill="#D2D5D9"/>
<path opacity="0.5" d="M178 530H1C1 513.975 5.30995 498.945 12.8502 486C20.6116 472.633 31.8157 461.501 45.25 453.774C58.2683 446.286 73.3753 442 89.5 442C105.625 442 120.732 446.286 133.75 453.774C147.184 461.501 158.388 472.633 166.15 486C173.69 498.945 178 513.975 178 530Z" fill="#B6BABF"/>
<path opacity="0.5" d="M488.75 518.226C501.768 525.714 516.875 530 533 530H356V354H533C516.875 354 501.768 358.286 488.75 365.774C475.316 373.501 464.112 384.633 456.35 398C448.81 410.945 444.5 425.975 444.5 442C444.5 458.025 448.81 473.055 456.35 486C464.112 499.367 475.316 510.499 488.75 518.226Z" fill="#B6BABF"/>
<path opacity="0.5" d="M1066 354V530H888C904.216 530 919.408 525.714 932.5 518.226C946.01 510.499 957.278 499.367 965.083 486C972.666 473.055 977 458.025 977 442C977 425.975 972.666 410.945 965.083 398C957.278 384.633 946.01 373.501 932.5 365.774C919.408 358.286 904.216 354 888 354H1066Z" fill="#B6BABF"/>
<path opacity="0.5" d="M1243 354V530H1066C1082.12 530 1097.23 525.714 1110.25 518.226C1123.68 510.499 1134.89 499.367 1142.65 486C1150.19 473.055 1154.5 458.025 1154.5 442C1154.5 425.975 1150.19 410.945 1142.65 398C1134.89 384.633 1123.68 373.501 1110.25 365.774C1097.23 358.286 1082.12 354 1066 354H1243Z" fill="#9FA5AB"/>
<path opacity="0.5" d="M356 354C356 370.025 351.666 385.055 344.083 398C336.278 411.367 325.01 422.499 311.5 430.226C298.408 437.714 283.216 442 267 442C250.784 442 235.592 437.714 222.5 430.226C208.99 422.499 197.722 411.367 189.917 398C182.334 385.055 178 370.025 178 354H356Z" fill="#9FA5AB"/>
<path opacity="0.5" d="M356 354V530H178V354C178 370.025 182.334 385.055 189.917 398C197.722 411.367 208.99 422.499 222.5 430.226C235.592 437.714 250.784 442 267 442C283.216 442 298.408 437.714 311.5 430.226C325.01 422.499 336.278 411.367 344.083 398C351.666 385.055 356 370.025 356 354Z" fill="#E8E9EB"/>
<path opacity="0.5" d="M533 354V530C516.784 530 501.592 525.714 488.5 518.226C474.99 510.499 463.722 499.367 455.917 486C448.334 473.055 444 458.025 444 442C444 425.975 448.334 410.945 455.917 398C463.722 384.633 474.99 373.501 488.5 365.774C501.592 358.286 516.784 354 533 354Z" fill="#D2D5D9"/>
<path opacity="0.5" d="M622 442C622 458.025 617.666 473.055 610.083 486C602.278 499.367 591.01 510.499 577.5 518.226C564.408 525.714 549.216 530 533 530V354C549.216 354 564.408 358.286 577.5 365.774C591.01 373.501 602.278 384.633 610.083 398C617.666 410.945 622 425.975 622 442Z" fill="#9FA5AB"/>
<path opacity="0.5" d="M888 530H711C711 513.975 715.31 498.945 722.85 486C730.612 472.633 741.816 461.501 755.25 453.774C768.268 446.286 783.375 442 799.5 442C815.625 442 830.732 446.286 843.75 453.774C857.184 461.501 868.388 472.633 876.15 486C883.69 498.945 888 513.975 888 530Z" fill="#D2D5D9"/>
<path opacity="0.5" d="M711 354V530H533C549.216 530 564.408 525.714 577.5 518.226C591.01 510.499 602.278 499.367 610.083 486C617.666 473.055 622 458.025 622 442C622 425.975 617.666 410.945 610.083 398C602.278 384.633 591.01 373.501 577.5 365.774C564.408 358.286 549.216 354 533 354H711Z" fill="#B6BABF"/>
<path opacity="0.5" d="M978 442C978 458.025 973.617 473.055 965.949 486C958.056 499.367 946.662 510.499 933 518.226C919.761 525.714 904.398 530 888 530V354C904.398 354 919.761 358.286 933 365.774C946.662 373.501 958.056 384.633 965.949 398C973.617 410.945 978 425.975 978 442Z" fill="#9FA5AB"/>
<path opacity="0.5" d="M888 354V530C888 513.975 883.69 498.945 876.15 486C868.388 472.633 857.184 461.501 843.75 453.774C830.732 446.286 815.625 442 799.5 442C783.375 442 768.268 446.286 755.25 453.774C741.816 461.501 730.612 472.633 722.85 486C715.31 498.945 711 513.975 711 530V354H888Z" fill="#E8E9EB"/>
<path opacity="0.5" d="M1155 442C1155 458.025 1150.67 473.055 1143.08 486C1135.28 499.367 1124.01 510.499 1110.5 518.226C1097.41 525.714 1082.22 530 1066 530V354C1082.22 354 1097.41 358.286 1110.5 365.774C1124.01 373.501 1135.28 384.633 1143.08 398C1150.67 410.945 1155 425.975 1155 442Z" fill="#D2D5D9"/>
<path opacity="0.5" d="M1421 354C1421 370.025 1416.67 385.055 1409.08 398C1401.28 411.367 1390.01 422.499 1376.5 430.226C1363.41 437.714 1348.22 442 1332 442C1315.78 442 1300.59 437.714 1287.5 430.226C1273.99 422.499 1262.72 411.367 1254.92 398C1247.33 385.055 1243 370.025 1243 354H1421Z" fill="#B6BABF"/>
<path opacity="0.5" d="M1243 530L1243 354C1243 370.025 1247.33 385.055 1254.92 398C1262.72 411.367 1273.99 422.499 1287.5 430.226C1300.59 437.714 1315.78 442 1332 442C1348.22 442 1363.41 437.714 1376.5 430.226C1390.01 422.499 1401.28 411.367 1409.08 398C1416.67 385.055 1421 370.025 1421 354L1421 530L1243 530Z" fill="#D2D5D9"/>
<path opacity="0.5" d="M1510 88C1510 71.9752 1514.33 56.9448 1521.92 44C1529.72 30.6328 1540.99 19.5008 1554.5 11.7744C1567.59 4.28561 1582.78 1.38385e-05 1599 1.52588e-05L1599 176C1582.78 176 1567.59 171.714 1554.5 164.226C1540.99 156.499 1529.72 145.367 1521.92 132C1514.33 119.055 1510 104.025 1510 88Z" fill="#B6BABF"/>
<path opacity="0.5" d="M1421 176L1421 -3.31938e-07L1599 1.52588e-05C1582.78 1.38385e-05 1567.59 4.28561 1554.5 11.7744C1540.99 19.5008 1529.72 30.6328 1521.92 44C1514.33 56.9448 1510 71.9752 1510 88C1510 104.025 1514.33 119.055 1521.92 132C1529.72 145.367 1540.99 156.499 1554.5 164.226C1567.59 171.714 1582.78 176 1599 176L1421 176Z" fill="#B6BABF"/>
<g style="mix-blend-mode:overlay" opacity="0.64">
<rect y="1" width="1599" height="530" fill="white"/>
</g>
</g>
<defs>
<clipPath id="clip0">
<rect width="1600" height="530" fill="white"/>
</clipPath>
</defs>
</svg>
